<?xml version="1.0" standalone="no"?>
<!DOCTYPE svg PUBLIC "-//W3C//DTD SVG 20010904//EN"
 "http://www.w3.org/TR/2001/REC-SVG-20010904/DTD/svg10.dtd">
<svg version="1.0" xmlns="http://www.w3.org/2000/svg"
 width="512.000000pt" height="512.000000pt" viewBox="0 0 512.000000 512.000000"
 preserveAspectRatio="xMidYMid meet">

<g transform="translate(0.000000,512.000000) scale(0.100000,-0.100000)"
fill="#000000" stroke="none">
<path d="M2440 4129 c-769 -53 -1394 -696 -1449 -1491 -33 -483 134 -935 468
-1268 141 -140 255 -222 427 -307 172 -84 246 -95 272 -38 8 16 12 82 12 172
l0 145 -23 -6 c-105 -26 -239 -15 -333 28 -54 25 -130 93 -151 137 -6 13 -27
58 -47 100 -38 82 -105 165 -162 199 -47 30 -62 59 -38 77 41 30 146 4 213
-54 23 -19 64 -68 91 -109 76 -112 144 -155 255 -161 50 -3 87 1 130 14 l59
19 26 76 c14 41 38 91 53 111 l26 35 -52 6 c-435 57 -656 314 -658 766 0 71 6
143 15 183 17 74 71 187 111 235 26 32 27 33 15 100 -16 88 -9 241 15 315 18
56 19 57 56 57 76 0 209 -52 334 -131 l60 -37 90 21 c77 18 121 21 305 21 184
0 228 -3 305 -21 l90 -21 60 37 c125 79 258 131 334 131 37 0 38 -1 56 -57 24
-74 31 -227 15 -315 -12 -67 -11 -68 15 -100 39 -47 93 -160 110 -230 9 -38
15 -113 15 -188 0 -441 -210 -693 -632 -760 l-77 -13 25 -33 c14 -18 35 -57
47 -86 20 -49 22 -73 25 -343 1 -174 7 -301 13 -317 27 -66 104 -53 309 53
494 255 825 764 858 1321 23 387 -65 722 -273 1033 -314 473 -845 733 -1415
694z"/>
</g>
</svg>
